<svg width="16" height="18" viewBox="0 0 16 18" fill="none" xmlns="http://www.w3.org/2000/svg">
<path fill-rule="evenodd" clip-rule="evenodd" d="M7.3518 0.338012L1.7518 2.82601C1.1758 3.08201 0.799805 3.65801 0.799805 4.29001V8.05001C0.799805 12.49 3.8718 16.642 7.9998 17.65C12.1278 16.642 15.1998 12.49 15.1998 8.05001V4.29001C15.1998 3.65801 14.8238 3.08201 14.2478 2.82601L8.6478 0.338012C8.2398 0.154012 7.7598 0.154012 7.3518 0.338012ZM5.8318 12.282L3.7598 10.21C3.61 10.0605 3.52582 9.85763 3.52582 9.64601C3.52582 9.4344 3.61 9.23148 3.7598 9.08201C4.0718 8.77001 4.5758 8.77001 4.8878 9.08201L6.3998 10.586L11.1038 5.88201C11.4158 5.57001 11.9198 5.57001 12.2318 5.88201C12.5438 6.19401 12.5438 6.69801 12.2318 7.01001L6.9598 12.282C6.6558 12.594 6.1438 12.594 5.8318 12.282Z" fill="#C3CAD9"/>
</svg>
