<svg width="18" height="13" viewBox="0 0 18 13" fill="none" xmlns="http://www.w3.org/2000/svg">
<path fill-rule="evenodd" clip-rule="evenodd" d="M9.0002 0.400024C5.0002 0.400024 1.5842 2.88802 0.200195 6.40002C1.5842 9.91202 5.0002 12.4 9.0002 12.4C13.0002 12.4 16.4162 9.91202 17.8002 6.40002C16.4162 2.88802 13.0002 0.400024 9.0002 0.400024ZM9.0002 10.4C6.7922 10.4 5.0002 8.60802 5.0002 6.40002C5.0002 4.19202 6.7922 2.40002 9.0002 2.40002C11.2082 2.40002 13.0002 4.19202 13.0002 6.40002C13.0002 8.60802 11.2082 10.4 9.0002 10.4ZM9.0002 4.00002C7.6722 4.00002 6.6002 5.07202 6.6002 6.40002C6.6002 7.72802 7.6722 8.80002 9.0002 8.80002C10.3282 8.80002 11.4002 7.72802 11.4002 6.40002C11.4002 5.07202 10.3282 4.00002 9.0002 4.00002Z" fill="#3361FF"/>
</svg>
