<svg width="18" height="12" viewBox="0 0 18 12" fill="none" xmlns="http://www.w3.org/2000/svg">
<path fill-rule="evenodd" clip-rule="evenodd" d="M12.2002 5.20002C13.5282 5.20002 14.5922 4.12802 14.5922 2.80002C14.5922 1.47202 13.5282 0.400024 12.2002 0.400024C10.8722 0.400024 9.8002 1.47202 9.8002 2.80002C9.8002 4.12802 10.8722 5.20002 12.2002 5.20002ZM5.8002 5.20002C7.1282 5.20002 8.19219 4.12802 8.19219 2.80002C8.19219 1.47202 7.1282 0.400024 5.8002 0.400024C4.4722 0.400024 3.4002 1.47202 3.4002 2.80002C3.4002 4.12802 4.4722 5.20002 5.8002 5.20002ZM5.8002 6.80002C3.9362 6.80002 0.200195 7.73602 0.200195 9.60002V10.8C0.200195 11.24 0.560195 11.6 1.0002 11.6H10.6002C11.0402 11.6 11.4002 11.24 11.4002 10.8V9.60002C11.4002 7.73602 7.6642 6.80002 5.8002 6.80002ZM12.2002 6.80002C11.9682 6.80002 11.7042 6.81602 11.4242 6.84002C11.4402 6.84802 11.4482 6.86402 11.4562 6.87202C12.3682 7.53602 13.0002 8.42402 13.0002 9.60002V10.8C13.0002 11.08 12.9442 11.352 12.8562 11.6H17.0002C17.4402 11.6 17.8002 11.24 17.8002 10.8V9.60002C17.8002 7.73602 14.0642 6.80002 12.2002 6.80002Z" fill="#FFCB33"/>
</svg>
